<?xml version="1.0" standalone="no"?>
<!DOCTYPE svg PUBLIC "-//W3C//DTD SVG 20010904//EN"
 "http://www.w3.org/TR/2001/REC-SVG-20010904/DTD/svg10.dtd">
<svg version="1.0" xmlns="http://www.w3.org/2000/svg"
 width="1351.000000pt" height="163.000000pt" viewBox="0 0 1351.000000 163.000000"
 preserveAspectRatio="xMidYMid meet">

<g transform="translate(0.000000,163.000000) scale(0.100000,-0.100000)"
fill="#000000" stroke="none">
<path d="M7963 1608 c-52 -37 -202 -223 -203 -250 0 -5 -9 -18 -20 -31 -26
-30 -51 -74 -91 -157 -17 -36 -37 -78 -45 -94 -8 -16 -14 -36 -14 -46 0 -9 -4
-20 -10 -26 -13 -13 -30 -147 -27 -219 5 -105 42 -146 120 -131 43 8 108 59
132 104 14 24 25 32 47 32 17 0 31 6 35 16 3 8 12 13 19 10 7 -3 20 5 28 16 9
12 19 19 23 15 12 -12 103 85 103 110 0 13 -5 23 -10 23 -6 0 -41 -20 -79 -45
-72 -47 -95 -54 -104 -30 -6 13 -34 15 -114 6 -19 -2 -73 -64 -73 -84 0 -10
11 -22 25 -27 22 -8 24 -12 13 -35 -13 -29 -54 -59 -63 -46 -8 14 -9 162 0
193 6 23 10 26 25 18 10 -6 25 -7 32 -4 17 7 68 80 68 99 0 8 9 19 20 25 11 6
20 17 20 24 0 7 11 23 25 36 14 13 25 27 25 32 0 4 15 31 33 60 59 93 124 241
137 309 10 59 10 70 -5 93 -21 32 -32 32 -72 4z m17 -120 c-18 -93 -124 -268
-279 -458 -20 -24 -21 -24 -21 -4 0 19 45 112 91 189 10 17 28 48 40 70 12 22
33 56 48 75 14 19 32 46 40 60 16 30 84 121 87 117 1 -1 -2 -23 -6 -49z"/>
<path d="M355 1559 c-55 -10 -125 -23 -155 -28 -140 -24 -216 -72 -191 -120
17 -32 55 -26 98 14 20 19 51 41 69 50 63 29 262 38 455 20 62 -6 186 -48 208
-70 36 -36 -21 -73 -189 -122 -30 -9 -57 -19 -60 -22 -3 -3 -16 -7 -30 -7 -28
-1 -146 -28 -172 -39 -16 -6 -16 -4 -1 42 8 26 20 52 24 58 17 18 9 66 -16 90
-41 42 -89 27 -78 -25 3 -19 -8 -54 -38 -119 l-43 -92 -85 -42 c-55 -27 -87
-49 -89 -61 -2 -11 11 -33 33 -56 l36 -37 -56 -108 c-30 -59 -55 -118 -55
-132 0 -31 25 -79 45 -87 44 -17 65 -1 65 48 0 28 55 166 74 184 10 11 49 -23
217 -187 112 -111 212 -203 222 -207 9 -3 17 -11 17 -18 0 -14 42 -36 69 -36
23 0 51 31 51 56 0 21 -65 82 -185 174 -38 30 -91 72 -116 94 -26 23 -63 52
-83 66 -21 14 -43 30 -49 35 -7 6 -36 30 -64 53 l-53 44 42 76 c42 79 64 105
80 96 5 -3 14 -1 21 4 7 5 53 17 102 26 335 63 462 116 466 194 6 100 -29 150
-126 182 -91 30 -317 35 -460 9z m-186 -491 c-16 -32 -15 -31 -39 -18 -17 9
-19 14 -9 26 6 8 22 14 36 14 21 0 23 -2 12 -22z"/>
<path d="M5365 1559 c-55 -10 -125 -23 -155 -28 -140 -24 -216 -72 -191 -120
17 -32 55 -26 98 14 20 19 51 41 69 50 63 29 262 38 455 20 62 -6 186 -48 208
-70 36 -36 -21 -73 -189 -122 -30 -9 -57 -19 -60 -22 -3 -3 -16 -7 -30 -7 -28
-1 -146 -28 -172 -39 -16 -6 -16 -4 -1 42 8 26 20 52 24 58 17 18 9 66 -16 90
-41 42 -89 27 -78 -25 3 -19 -8 -54 -38 -119 l-43 -92 -85 -42 c-55 -27 -87
-49 -89 -61 -2 -11 11 -33 33 -56 l36 -37 -56 -108 c-30 -59 -55 -118 -55
-132 0 -31 25 -79 45 -87 44 -17 65 -1 65 48 0 28 55 166 74 184 10 11 49 -23
217 -187 112 -111 212 -203 222 -207 9 -3 17 -11 17 -18 0 -14 42 -36 69 -36
23 0 51 31 51 56 0 21 -65 82 -185 174 -38 30 -91 72 -116 94 -26 23 -63 52
-83 66 -21 14 -43 30 -49 35 -7 6 -36 30 -64 53 l-53 44 42 76 c42 79 64 105
80 96 5 -3 14 -1 21 4 7 5 53 17 102 26 335 63 462 116 466 194 6 100 -29 150
-126 182 -91 30 -317 35 -460 9z m-186 -491 c-16 -32 -15 -31 -39 -18 -17 9
-19 14 -9 26 6 8 22 14 36 14 21 0 23 -2 12 -22z"/>
<path d="M9098 1553 c-35 -39 -139 -217 -190 -324 -90 -191 -104 -212 -167
-271 -48 -46 -61 -64 -61 -88 0 -33 2 -35 31 -20 25 14 25 1 -1 -49 -10 -21
-21 -51 -24 -66 -6 -33 9 -75 27 -75 14 0 117 113 117 129 0 6 6 11 13 11 6 0
26 14 42 31 17 17 65 56 109 86 97 68 104 64 88 -44 -17 -111 -15 -130 13
-158 31 -32 55 -32 89 0 15 14 31 25 36 25 6 0 15 9 22 20 7 11 17 20 21 20
10 0 78 50 90 65 11 15 29 86 23 92 -6 7 -54 -27 -136 -96 l-65 -55 -3 27 c-2
15 3 49 12 75 8 26 18 68 21 93 6 41 4 48 -16 63 -13 9 -39 16 -59 16 -60 0
-113 -35 -253 -169 l-48 -46 40 84 c22 46 48 95 57 110 10 14 24 37 31 51 7
14 18 25 25 25 13 0 85 97 111 150 29 59 47 103 47 117 0 8 3 18 7 22 15 15
30 103 21 127 -16 41 -45 50 -70 22z"/>
<path d="M11808 1501 c-13 -11 -57 -86 -97 -168 -40 -81 -85 -172 -100 -201
-14 -30 -63 -99 -108 -155 -45 -56 -79 -105 -77 -109 7 -11 52 -10 59 2 3 6
10 10 15 10 5 0 -3 -22 -17 -50 -33 -63 -41 -131 -19 -149 14 -11 21 -9 51 13
19 15 35 30 35 34 0 18 189 212 206 212 8 0 14 4 14 10 0 5 14 16 30 25 29 15
30 15 30 -9 0 -18 -11 -31 -47 -51 -27 -15 -58 -37 -70 -48 -23 -21 -31 -57
-13 -57 5 0 18 -17 29 -38 28 -54 75 -102 101 -102 26 0 101 35 128 60 9 9 44
38 77 64 65 53 69 58 79 99 4 17 2 27 -4 27 -12 0 -83 -50 -88 -62 -2 -5 -9
-8 -17 -8 -7 0 -18 -7 -25 -16 -25 -29 -99 -66 -119 -59 -25 8 -70 77 -53 83
6 2 38 21 70 42 64 41 90 86 78 135 -13 53 -102 68 -142 24 -9 -10 -22 -19
-29 -19 -6 0 -53 -43 -104 -96 -87 -90 -116 -111 -93 -67 6 10 26 52 45 93 19
41 67 118 106 170 38 52 82 119 97 149 34 69 51 166 35 204 -12 32 -29 34 -63
8z"/>
<path d="M9793 1340 c-18 -7 -23 -17 -23 -43 0 -73 83 -93 90 -22 4 32 1 43
-16 59 -17 18 -20 18 -51 6z"/>
<path d="M12553 1340 c-18 -7 -23 -17 -23 -43 0 -73 83 -93 90 -22 4 32 1 43
-16 59 -17 18 -20 18 -51 6z"/>
<path d="M11102 1118 c-5 -7 -13 -24 -17 -38 -18 -58 -91 -138 -177 -194 -14
-9 -29 -24 -32 -32 -7 -18 3 -44 17 -44 14 0 90 62 164 133 l62 60 7 -27 c8
-35 -11 -108 -43 -163 -32 -54 -57 -69 -90 -54 -30 14 -60 6 -90 -22 -29 -26
-29 -29 8 -72 34 -39 71 -45 117 -21 15 8 38 19 52 25 80 36 204 121 275 189
11 10 33 27 48 37 21 13 27 25 25 43 -2 14 -8 27 -14 29 -5 2 -50 -28 -99 -67
-50 -38 -95 -70 -101 -70 -9 0 -9 11 -1 42 17 69 -18 224 -57 250 -17 12 -42
9 -54 -4z"/>
<path d="M1140 1067 c-36 -12 -79 -32 -97 -44 -17 -13 -35 -23 -40 -23 -5 0
-35 -23 -66 -51 -39 -34 -57 -58 -57 -74 0 -35 15 -38 46 -10 15 14 30 25 34
25 4 0 1 -24 -7 -52 -20 -75 -11 -109 42 -157 32 -30 53 -41 75 -41 29 0 121
33 145 52 6 5 22 18 38 29 79 59 122 195 81 256 -10 15 -17 38 -15 50 2 17 -6
26 -35 38 -61 25 -75 25 -144 2z m104 -93 c-16 -24 -16 -26 3 -52 19 -26 20
-30 4 -69 -29 -75 -116 -153 -169 -153 -32 0 -39 10 -43 65 -5 74 96 207 160
212 13 1 29 7 34 12 21 21 27 11 11 -15z"/>
<path d="M8299 1054 c-84 -41 -180 -150 -208 -237 -19 -56 8 -115 66 -145 35
-18 92 -23 115 -10 13 7 26 11 30 10 18 -5 237 139 280 185 27 29 41 84 22 90
-6 2 -23 -8 -38 -22 -15 -14 -30 -25 -35 -25 -4 0 -16 -8 -27 -18 -19 -18
-120 -82 -129 -82 -3 0 -27 -14 -54 -30 -36 -22 -63 -31 -102 -33 -51 -2 -54
-1 -57 23 -2 14 3 37 10 50 65 120 178 195 256 169 28 -9 36 -8 53 7 23 21 24
42 4 71 -21 30 -122 29 -186 -3z"/>
<path d="M1965 1060 c-3 -5 -13 -10 -21 -10 -12 0 -56 -29 -136 -90 l-28 -22
0 34 c0 53 -11 62 -63 50 -45 -9 -81 -31 -139 -84 -21 -20 -28 -35 -26 -55 4
-38 23 -39 55 -3 35 40 79 64 88 49 4 -5 -6 -28 -22 -51 -82 -117 -84 -122
-78 -158 4 -19 11 -41 17 -47 16 -20 48 -16 48 5 0 10 25 44 55 76 30 31 55
64 55 72 0 8 4 14 10 14 5 0 41 32 79 70 38 39 74 70 81 70 9 0 11 -26 7 -102
-4 -88 -2 -108 14 -140 11 -21 24 -38 30 -38 6 0 27 19 47 42 20 23 49 53 65
66 15 14 27 29 27 34 0 11 62 67 75 68 6 0 10 -36 11 -87 1 -84 2 -87 33 -115
49 -44 43 -47 194 83 36 32 47 48 47 70 0 38 -19 37 -60 -1 -18 -16 -35 -30
-39 -30 -4 0 -14 -9 -24 -20 -30 -35 -47 -25 -48 28 -2 109 -6 132 -24 152
-33 37 -77 18 -190 -77 -27 -24 -53 -43 -57 -43 -5 0 -8 36 -8 80 0 69 -3 82
-22 100 -24 22 -43 26 -53 10z"/>
<path d="M2918 1049 c-133 -48 -288 -205 -288 -292 0 -62 37 -107 88 -107 34
0 160 86 255 173 16 15 33 27 36 27 3 0 7 -26 8 -57 3 -98 55 -117 146 -54 72
50 108 94 114 140 5 33 3 41 -10 41 -9 0 -20 -6 -24 -14 -10 -17 -125 -116
-135 -116 -25 0 1 92 47 170 9 14 14 39 13 55 -4 42 -48 47 -82 11 -29 -32
-36 -33 -36 -2 0 48 -47 57 -132 25z m90 -97 c21 -7 19 -10 -35 -63 -57 -55
-213 -159 -240 -159 -16 0 -17 33 -2 63 20 39 111 119 163 143 52 24 73 27
114 16z"/>
<path d="M7008 1049 c-133 -48 -288 -205 -288 -292 0 -62 37 -107 88 -107 34
0 160 86 255 173 16 15 33 27 36 27 3 0 7 -26 8 -57 3 -98 55 -117 146 -54 72
50 108 94 114 140 5 33 3 41 -10 41 -9 0 -20 -6 -24 -14 -10 -17 -125 -116
-135 -116 -25 0 1 92 47 170 9 14 14 39 13 55 -4 42 -48 47 -82 11 -29 -32
-36 -33 -36 -2 0 48 -47 57 -132 25z m90 -97 c21 -7 19 -10 -35 -63 -57 -55
-213 -159 -240 -159 -16 0 -17 33 -2 63 20 39 111 119 163 143 52 24 73 27
114 16z"/>
<path d="M9625 1035 c-22 -19 -44 -34 -49 -35 -19 0 -115 -86 -120 -108 -7
-23 -1 -42 12 -42 4 0 26 17 48 39 39 36 124 80 124 63 0 -4 -11 -38 -25 -77
-31 -88 -33 -167 -5 -195 11 -11 27 -20 35 -20 56 0 225 121 257 184 31 61 10
66 -59 14 -65 -49 -129 -88 -145 -88 -15 0 -3 66 21 121 11 24 22 65 26 90 6
42 4 48 -20 68 -37 29 -53 27 -100 -14z"/>
<path d="M12385 1035 c-22 -19 -44 -34 -49 -35 -19 0 -115 -86 -120 -108 -7
-23 -1 -42 12 -42 4 0 26 17 48 39 39 36 124 80 124 63 0 -4 -11 -38 -25 -77
-31 -88 -33 -167 -5 -195 11 -11 27 -20 35 -20 56 0 225 121 257 184 31 61 10
66 -59 14 -65 -49 -129 -88 -145 -88 -15 0 -3 66 21 121 11 24 22 65 26 90 6
42 4 48 -20 68 -37 29 -53 27 -100 -14z"/>
<path d="M6023 1017 c-22 -18 -67 -57 -99 -86 l-57 -52 22 -22 22 -22 25 30
c26 33 29 30 13 -12 -16 -42 -14 -103 5 -121 17 -18 73 -25 82 -11 3 5 11 9
19 9 16 0 188 100 193 112 2 4 10 8 19 8 8 0 28 9 44 21 16 11 29 18 29 14 0
-3 9 -1 20 5 11 6 20 9 20 8 0 -2 -12 -34 -26 -73 -14 -38 -31 -88 -37 -110
-15 -53 -58 -125 -81 -139 -11 -6 -29 -20 -40 -31 -12 -11 -38 -33 -59 -49
-46 -34 -161 -186 -206 -272 -31 -61 -49 -149 -34 -169 16 -21 72 -55 90 -55
16 1 73 42 73 54 0 3 14 20 30 38 17 18 30 35 30 39 0 3 25 43 55 89 30 45 52
86 50 90 -3 5 -1 11 4 15 6 3 24 36 41 73 83 177 91 189 130 201 42 12 110 14
125 3 6 -4 18 -19 28 -34 17 -28 50 -37 62 -18 12 20 -7 71 -32 87 -29 19
-106 20 -159 3 -20 -7 -38 -10 -40 -7 -3 3 6 34 21 69 30 72 54 140 55 153 0
3 7 21 15 41 22 53 20 121 -4 134 -35 18 -51 11 -167 -67 -117 -80 -253 -163
-266 -163 -15 0 -7 30 20 77 88 149 69 222 -35 140z m134 -639 c-59 -113 -81
-151 -145 -250 -12 -19 -33 -40 -46 -46 -22 -10 -23 -8 -21 16 3 31 19 75 40
114 8 14 15 31 15 38 0 7 14 29 30 50 17 21 30 41 30 44 0 16 138 156 153 156
5 0 -21 -55 -56 -122z"/>
<path d="M12913 1017 c-22 -18 -67 -57 -99 -86 l-57 -52 22 -22 22 -22 25 30
c26 33 29 30 13 -12 -16 -42 -14 -103 5 -121 17 -18 73 -25 82 -11 3 5 11 9
19 9 16 0 188 100 193 112 2 4 10 8 19 8 8 0 28 9 44 21 16 11 29 18 29 14 0
-3 9 -1 20 5 11 6 20 9 20 8 0 -2 -12 -34 -26 -73 -14 -38 -31 -88 -37 -110
-15 -53 -58 -125 -81 -139 -11 -6 -29 -20 -40 -31 -12 -11 -38 -33 -59 -49
-46 -34 -161 -186 -206 -272 -31 -61 -49 -149 -34 -169 16 -21 72 -55 90 -55
16 1 73 42 73 54 0 3 14 20 30 38 17 18 30 35 30 39 0 3 25 43 55 89 30 45 52
86 50 90 -3 5 -1 11 4 15 6 3 24 36 41 73 83 177 91 189 130 201 42 12 110 14
125 3 6 -4 18 -19 28 -34 17 -28 50 -37 62 -18 12 20 -7 71 -32 87 -29 19
-106 20 -159 3 -20 -7 -38 -10 -40 -7 -3 3 6 34 21 69 30 72 54 140 55 153 0
3 7 21 15 41 22 53 20 121 -4 134 -35 18 -51 11 -167 -67 -117 -80 -253 -163
-266 -163 -15 0 -7 30 20 77 88 149 69 222 -35 140z m134 -639 c-59 -113 -81
-151 -145 -250 -12 -19 -33 -40 -46 -46 -22 -10 -23 -8 -21 16 3 31 19 75 40
114 8 14 15 31 15 38 0 7 14 29 30 50 17 21 30 41 30 44 0 16 138 156 153 156
5 0 -21 -55 -56 -122z"/>
<path d="M3518 1016 c-9 -13 -38 -35 -65 -48 -53 -28 -81 -60 -85 -97 -4 -33
14 -36 48 -8 16 13 46 33 66 46 l37 22 -10 -29 c-6 -17 -27 -49 -48 -71 -24
-26 -41 -55 -44 -77 -7 -39 8 -80 30 -88 15 -6 103 59 103 76 0 5 6 8 13 5 6
-2 23 8 37 23 65 70 210 173 224 160 2 -3 5 -43 7 -90 3 -101 13 -133 46 -160
43 -34 75 -26 155 39 98 79 125 110 130 149 3 17 1 32 -4 32 -10 0 -82 -55
-123 -94 -16 -16 -41 -36 -54 -44 -22 -15 -24 -14 -38 4 -8 10 -12 30 -9 44
18 93 17 145 -3 177 -11 18 -31 35 -45 39 -28 7 -135 -37 -162 -67 -9 -11 -22
-19 -29 -19 -6 0 -22 -11 -35 -25 -33 -35 -38 -32 -33 18 4 36 1 48 -22 75
-32 38 -63 41 -87 8z"/>
<path d="M10168 1016 c-9 -13 -38 -35 -65 -48 -53 -28 -81 -60 -85 -97 -4 -33
14 -36 48 -8 16 13 46 33 66 46 l37 22 -10 -29 c-6 -17 -27 -49 -48 -71 -24
-26 -41 -55 -44 -77 -7 -39 8 -80 30 -88 15 -6 103 59 103 76 0 5 6 8 13 5 6
-2 23 8 37 23 65 70 210 173 224 160 2 -3 5 -43 7 -90 3 -101 13 -133 46 -160
43 -34 75 -26 155 39 98 79 125 110 130 149 3 17 1 32 -4 32 -10 0 -82 -55
-123 -94 -16 -16 -41 -36 -54 -44 -22 -15 -24 -14 -38 4 -8 10 -12 30 -9 44
18 93 17 145 -3 177 -11 18 -31 35 -45 39 -28 7 -135 -37 -162 -67 -9 -11 -22
-19 -29 -19 -6 0 -22 -11 -35 -25 -33 -35 -38 -32 -33 18 4 36 1 48 -22 75
-32 38 -63 41 -87 8z"/>
</g>
</svg>
