<?xml version="1.0" standalone="no"?>
<!DOCTYPE svg PUBLIC "-//W3C//DTD SVG 20010904//EN"
 "http://www.w3.org/TR/2001/REC-SVG-20010904/DTD/svg10.dtd">
<svg version="1.0" xmlns="http://www.w3.org/2000/svg"
 width="1509.000000pt" height="142.000000pt" viewBox="0 0 1509.000000 142.000000"
 preserveAspectRatio="xMidYMid meet">

<g transform="translate(0.000000,142.000000) scale(0.100000,-0.100000)"
fill="#000000" stroke="none">
<path d="M570 1405 c-175 -35 -327 -138 -382 -260 -42 -94 -23 -219 36 -247
30 -13 114 13 142 43 17 19 17 21 -29 63 -39 35 -47 49 -47 77 1 51 31 109 84
157 159 147 455 163 543 31 47 -71 42 -215 -10 -294 -30 -46 -66 -65 -125 -65
-42 0 -52 -4 -57 -20 -8 -25 1 -40 25 -40 45 0 50 -59 19 -206 -26 -120 -21
-178 19 -225 77 -93 194 -75 340 50 69 59 72 64 72 106 l0 44 -56 -59 c-62
-65 -114 -95 -150 -86 -32 8 -37 37 -26 132 13 113 -2 166 -62 220 l-46 40 68
22 c37 12 89 35 114 51 84 54 125 161 98 260 -14 55 -87 134 -153 168 -100 50
-275 66 -417 38z"/>
<path d="M6110 1405 c-175 -35 -327 -138 -382 -260 -42 -94 -23 -219 36 -247
30 -13 114 13 142 43 17 19 17 21 -29 63 -39 35 -47 49 -47 77 1 51 31 109 84
157 159 147 455 163 543 31 47 -71 42 -215 -10 -294 -30 -46 -66 -65 -125 -65
-42 0 -52 -4 -57 -20 -8 -25 1 -40 25 -40 45 0 50 -59 19 -206 -26 -120 -21
-178 19 -225 77 -93 194 -75 340 50 69 59 72 64 72 106 l0 44 -56 -59 c-62
-65 -114 -95 -150 -86 -32 8 -37 37 -26 132 13 113 -2 166 -62 220 l-46 40 68
22 c37 12 89 35 114 51 84 54 125 161 98 260 -14 55 -87 134 -153 168 -100 50
-275 66 -417 38z"/>
<path d="M9110 1409 c-188 -52 -197 -57 -225 -107 -45 -80 -111 -241 -159
-390 -84 -262 -97 -414 -43 -486 39 -50 80 -69 136 -64 63 6 107 29 186 97
l68 58 41 -23 c51 -29 104 -30 156 -4 37 19 40 24 40 61 l0 41 -40 -36 c-29
-26 -49 -36 -73 -36 -30 0 -73 21 -88 43 -4 5 13 43 37 85 54 97 86 192 87
259 3 163 -163 94 -218 -91 -19 -64 -19 -167 0 -212 10 -25 12 -41 5 -54 -15
-28 -66 -61 -104 -67 -77 -12 -97 75 -56 246 l21 85 99 102 c192 197 276 375
225 474 -17 32 -34 35 -95 19z m41 -93 c16 -35 -9 -100 -76 -199 -50 -74 -155
-199 -155 -185 0 3 18 59 40 123 81 233 157 337 191 261z"/>
<path d="M10462 1377 l-114 -42 -53 -94 c-96 -168 -162 -359 -185 -535 -11
-80 -11 -329 0 -339 3 -3 39 2 80 12 l75 17 12 144 c7 80 14 154 17 165 7 26
102 121 152 152 47 27 71 29 78 5 7 -21 0 -47 -47 -172 -45 -120 -59 -196 -46
-243 13 -49 61 -87 108 -87 54 0 147 50 225 121 57 52 66 66 66 95 0 19 -3 34
-6 34 -4 0 -35 -27 -70 -59 -69 -65 -97 -79 -119 -61 -23 19 -19 41 35 200 60
176 66 245 25 285 -35 36 -79 32 -168 -14 l-74 -40 65 97 c88 132 114 191 119
277 4 78 -10 119 -42 122 -11 2 -71 -17 -133 -40z m114 -62 c19 -76 -70 -244
-239 -448 -17 -22 -18 -22 -11 8 28 134 127 364 185 429 37 42 56 45 65 11z"/>
<path d="M13355 1377 l-120 -42 -46 -77 c-98 -163 -165 -351 -193 -541 -17
-109 -21 -323 -8 -344 6 -10 24 -10 82 0 l75 13 7 79 c15 171 29 268 43 300 7
19 35 57 61 85 74 79 161 93 188 29 7 -17 11 -41 8 -55 -9 -50 -80 -93 -152
-94 -38 0 -52 -14 -48 -46 2 -22 10 -30 36 -36 l34 -9 -8 -72 c-14 -125 -6
-154 49 -187 70 -43 164 -10 279 98 58 55 68 69 68 98 0 43 -11 43 -45 -2 -35
-46 -102 -94 -131 -94 -31 0 -47 32 -39 79 8 49 -15 107 -49 123 -25 11 -25
12 32 34 129 53 179 132 136 215 -24 48 -92 73 -170 65 l-63 -6 53 71 c72 95
106 166 112 230 6 63 -18 123 -51 126 -11 1 -74 -17 -140 -40z m126 -58 c24
-45 -22 -140 -141 -289 -67 -84 -110 -130 -110 -116 0 3 16 57 36 119 75 234
173 364 215 286z"/>
<path d="M11103 1272 c-3 -9 -17 -41 -31 -71 -24 -52 -24 -55 -7 -67 46 -34
138 -29 174 10 23 25 41 75 41 118 0 26 -1 26 -27 12 -36 -18 -65 -18 -109 1
-32 13 -35 13 -41 -3z"/>
<path d="M13993 1272 c-3 -9 -17 -41 -31 -71 -24 -52 -24 -55 -7 -67 46 -34
138 -29 174 10 23 25 41 75 41 118 0 26 -1 26 -27 12 -36 -18 -65 -18 -109 1
-32 13 -35 13 -41 -3z"/>
<path d="M704 1241 c-86 -39 -160 -128 -190 -229 -8 -26 -26 -114 -39 -197
-14 -82 -34 -178 -46 -212 -48 -146 -154 -221 -224 -160 -29 25 -33 53 -21
134 10 65 -6 76 -68 46 -63 -31 -106 -71 -106 -99 0 -65 58 -134 128 -154 138
-38 338 38 431 164 77 102 95 157 136 411 26 165 49 226 96 259 17 12 19 18
10 35 -15 26 -52 27 -107 2z"/>
<path d="M6244 1241 c-86 -39 -160 -128 -190 -229 -8 -26 -26 -114 -39 -197
-14 -82 -34 -178 -46 -212 -48 -146 -154 -221 -224 -160 -29 25 -33 53 -21
134 10 65 -6 76 -68 46 -63 -31 -106 -71 -106 -99 0 -65 58 -134 128 -154 138
-38 338 38 431 164 77 102 95 157 136 411 26 165 49 226 96 259 17 12 19 18
10 35 -15 26 -52 27 -107 2z"/>
<path d="M1605 986 c-169 -55 -282 -195 -293 -362 -6 -92 10 -151 54 -203 81
-94 226 -78 338 37 38 40 39 40 72 26 44 -18 88 -18 127 2 54 28 67 44 67 87
l0 39 -41 -41 c-51 -50 -80 -59 -126 -37 -26 12 -33 21 -28 34 32 83 57 200
62 288 l6 102 -29 18 c-35 24 -152 29 -209 10z m91 -77 c-74 -87 -85 -208 -28
-313 l29 -54 -23 -30 c-13 -16 -37 -35 -53 -42 -81 -33 -126 36 -119 179 10
180 89 300 196 301 l34 0 -36 -41z"/>
<path d="M2286 983 l-78 -15 -28 -62 c-65 -143 -82 -220 -88 -388 -2 -89 -1
-158 4 -158 5 1 43 9 84 19 l75 18 7 82 c13 162 22 184 101 268 76 80 125 113
137 93 9 -15 -1 -75 -52 -293 -22 -98 -39 -179 -37 -181 7 -7 174 25 179 34 3
5 21 74 40 152 l35 143 63 66 c67 72 118 102 132 79 4 -7 0 -42 -11 -79 -79
-272 -79 -358 1 -391 63 -26 136 3 248 99 67 58 77 72 80 104 2 20 -1 37 -5
37 -5 0 -33 -25 -62 -54 -30 -30 -68 -60 -84 -67 -26 -11 -31 -10 -44 7 -16
22 -13 39 33 187 41 131 51 201 34 251 -31 96 -127 86 -250 -28 -30 -28 -67
-62 -83 -75 l-27 -25 6 46 c11 82 -26 148 -85 148 -46 0 -116 -44 -203 -129
-49 -46 -88 -78 -88 -71 0 6 14 52 30 102 17 49 30 91 30 94 0 5 2 5 -94 -13z"/>
<path d="M3598 986 c-110 -39 -215 -134 -268 -243 -29 -57 -35 -82 -38 -153
-4 -78 -2 -89 25 -139 68 -130 203 -116 326 34 58 71 54 73 72 -29 4 -23 18
-51 35 -68 55 -55 130 -31 253 83 71 66 77 74 77 111 l0 40 -60 -56 c-69 -63
-103 -77 -128 -52 -32 31 -17 105 88 459 7 23 6 27 -12 27 -11 0 -54 -18 -95
-41 -71 -39 -75 -40 -88 -23 -8 11 -15 22 -15 25 0 13 -69 39 -102 39 -18 -1
-49 -7 -70 -14z m123 -67 c19 -19 21 -30 17 -99 -4 -62 -12 -92 -41 -154 -62
-130 -112 -177 -172 -162 -59 15 -66 107 -18 236 60 161 154 239 214 179z"/>
<path d="M4385 982 c-75 -16 -81 -19 -97 -52 -27 -55 -76 -209 -87 -274 -12
-68 -14 -265 -3 -283 5 -8 26 -7 82 6 l75 17 3 54 c6 125 21 192 56 239 46 62
160 171 180 171 27 0 19 -48 -25 -166 -82 -215 -59 -334 64 -334 52 0 148 53
220 120 57 53 67 67 67 96 0 19 -3 34 -7 34 -5 0 -32 -24 -61 -54 -84 -85
-142 -99 -142 -34 0 18 23 98 50 178 30 87 50 162 50 188 0 71 -31 111 -85
111 -56 1 -117 -38 -218 -137 -55 -53 -97 -88 -94 -77 11 37 59 188 64 202 6
16 9 16 -92 -5z"/>
<path d="M7063 981 c-51 -9 -94 -19 -97 -22 -10 -10 -88 -229 -101 -284 -20
-83 -19 -188 2 -232 19 -42 66 -73 108 -73 45 0 123 41 184 96 36 32 52 42 48
29 -3 -11 -13 -45 -22 -75 -15 -53 -19 -56 -77 -85 -73 -36 -166 -117 -185
-162 -38 -91 4 -173 89 -173 58 0 133 38 185 91 43 46 99 141 128 220 14 39
24 49 69 71 73 36 161 93 207 135 33 30 39 42 39 75 l0 40 -64 -60 c-60 -55
-195 -147 -204 -137 -2 2 37 128 88 280 51 152 90 278 89 280 -2 2 -47 -5 -99
-14 l-95 -17 -50 -139 c-79 -217 -151 -334 -218 -350 -43 -11 -57 8 -57 76 0
67 33 176 103 342 26 61 41 107 34 106 -7 -1 -53 -9 -104 -18z m77 -718 c-23
-79 -53 -143 -81 -171 -38 -39 -75 -42 -91 -8 -19 42 24 112 100 164 35 23 68
42 72 42 5 0 5 -12 0 -27z"/>
<path d="M8058 986 c-110 -39 -215 -134 -268 -243 -29 -57 -35 -82 -38 -153
-4 -78 -2 -89 25 -139 68 -130 203 -116 326 34 58 71 54 73 72 -29 4 -23 18
-51 35 -68 55 -55 130 -31 253 83 71 66 77 74 77 111 l0 40 -60 -56 c-69 -63
-103 -77 -128 -52 -32 31 -17 105 88 459 7 23 6 27 -12 27 -11 0 -54 -18 -95
-41 -71 -39 -75 -40 -88 -23 -8 11 -15 22 -15 25 0 13 -69 39 -102 39 -18 -1
-49 -7 -70 -14z m123 -67 c19 -19 21 -30 17 -99 -4 -62 -12 -92 -41 -154 -62
-130 -112 -177 -172 -162 -59 15 -66 107 -18 236 60 161 154 239 214 179z"/>
<path d="M9709 986 c-58 -21 -105 -53 -154 -108 -61 -68 -91 -120 -109 -193
-31 -117 -16 -198 48 -261 100 -101 258 -82 419 51 63 52 67 58 67 96 l0 41
-52 -46 c-101 -88 -190 -108 -257 -59 -79 60 -93 218 -30 344 21 42 73 89 98
89 37 0 54 -35 48 -100 -3 -33 -1 -62 4 -65 10 -7 131 52 141 69 12 18 9 45
-8 82 -31 64 -128 91 -215 60z"/>
<path d="M11135 984 c-33 -8 -70 -16 -82 -19 -18 -4 -29 -25 -58 -118 -66
-204 -81 -336 -46 -413 49 -108 132 -96 276 38 65 61 75 75 75 104 0 19 -3 34
-7 34 -4 0 -28 -20 -53 -45 -55 -55 -102 -68 -120 -35 -18 33 -6 101 47 269
68 219 64 201 45 200 -9 -1 -44 -7 -77 -15z"/>
<path d="M11605 982 c-75 -16 -81 -19 -97 -52 -27 -55 -76 -209 -87 -274 -12
-68 -14 -265 -3 -283 5 -8 26 -7 82 6 l75 17 3 54 c6 125 21 192 56 239 46 62
160 171 180 171 27 0 19 -48 -25 -166 -82 -215 -59 -334 64 -334 52 0 148 53
220 120 57 53 67 67 67 96 0 19 -3 34 -7 34 -5 0 -32 -24 -61 -54 -84 -85
-142 -99 -142 -34 0 18 23 98 50 178 30 87 50 162 50 188 0 71 -31 111 -85
111 -56 1 -117 -38 -218 -137 -55 -53 -97 -88 -94 -77 11 37 59 188 64 202 6
16 9 16 -92 -5z"/>
<path d="M12547 985 c-32 -7 -59 -14 -61 -16 -2 -2 -20 -36 -39 -75 -37 -73
-134 -210 -181 -253 -19 -18 -26 -34 -26 -63 0 -21 4 -38 9 -38 11 0 144 160
185 222 17 26 33 48 36 48 3 0 32 -51 64 -113 50 -96 57 -118 51 -146 -10 -47
-60 -99 -102 -107 -41 -8 -57 5 -88 68 -11 23 -26 44 -33 46 -16 5 -91 -75
-99 -106 -4 -16 2 -31 17 -47 74 -78 226 -49 341 67 107 107 127 220 58 329
-31 49 -34 60 -33 127 0 82 4 80 -99 57z"/>
<path d="M14025 984 c-33 -8 -70 -16 -82 -19 -18 -4 -29 -25 -58 -118 -66
-204 -81 -336 -46 -413 49 -108 132 -96 276 38 65 61 75 75 75 104 0 19 -3 34
-7 34 -4 0 -28 -20 -53 -45 -55 -55 -102 -68 -120 -35 -18 33 -6 101 47 269
68 219 64 201 45 200 -9 -1 -44 -7 -77 -15z"/>
<path d="M14513 981 c-51 -9 -94 -19 -97 -22 -10 -10 -88 -229 -101 -284 -20
-83 -19 -188 2 -232 19 -42 66 -73 108 -73 45 0 123 41 184 96 36 32 52 42 48
29 -3 -11 -13 -45 -22 -75 -15 -53 -19 -56 -77 -85 -73 -36 -166 -117 -185
-162 -38 -91 4 -173 89 -173 58 0 133 38 185 91 43 46 99 141 128 220 14 39
24 49 69 71 73 36 161 93 207 135 33 30 39 42 39 75 l0 40 -64 -60 c-60 -55
-195 -147 -204 -137 -2 2 37 128 88 280 51 152 90 278 89 280 -2 2 -47 -5 -99
-14 l-95 -17 -50 -139 c-79 -217 -151 -334 -218 -350 -43 -11 -57 8 -57 76 0
67 33 176 103 342 26 61 41 107 34 106 -7 -1 -53 -9 -104 -18z m77 -718 c-23
-79 -53 -143 -81 -171 -38 -39 -75 -42 -91 -8 -19 42 24 112 100 164 35 23 68
42 72 42 5 0 5 -12 0 -27z"/>
</g>
</svg>
